<?xml version="1.0" encoding="UTF-8" standalone="no"?>
<!-- Created with Inkscape (http://www.inkscape.org/) -->

<svg
   xmlns:dc="http://purl.org/dc/elements/1.1/"
   xmlns:cc="http://creativecommons.org/ns#"
   xmlns:rdf="http://www.w3.org/1999/02/22-rdf-syntax-ns#"
   xmlns:svg="http://www.w3.org/2000/svg"
   xmlns="http://www.w3.org/2000/svg"
   xmlns:xlink="http://www.w3.org/1999/xlink"
   xmlns:sodipodi="http://sodipodi.sourceforge.net/DTD/sodipodi-0.dtd"
   xmlns:inkscape="http://www.inkscape.org/namespaces/inkscape"
   id="svg3004"
   version="1.1"
   inkscape:version="0.48.1 r9760"
   width="800"
   height="400"
   xml:space="preserve"
   sodipodi:docname="oshw-logo.ai"
   inkscape:export-filename="/tmp/oshw-black-400.bmp.png"
   inkscape:export-xdpi="159.12"
   inkscape:export-ydpi="159.12"><metadata
     id="metadata3010"><rdf:RDF><cc:Work
         rdf:about=""><dc:format>image/svg+xml</dc:format><dc:type
           rdf:resource="http://purl.org/dc/dcmitype/StillImage" /><dc:title></dc:title></cc:Work></rdf:RDF></metadata><defs
     id="defs3008"><clipPath
       clipPathUnits="userSpaceOnUse"
       id="clipPath3018"><path
         d="m 0,180.994 172.238,0 L 172.238,0 0,0 0,180.994 z"
         id="path3020"
         inkscape:connector-curvature="0" /></clipPath></defs><sodipodi:namedview
     pagecolor="#ffffff"
     bordercolor="#666666"
     borderopacity="1"
     objecttolerance="10"
     gridtolerance="10"
     guidetolerance="10"
     inkscape:pageopacity="0"
     inkscape:pageshadow="2"
     inkscape:window-width="1280"
     inkscape:window-height="982"
     id="namedview3006"
     showgrid="false"
     showguides="true"
     inkscape:guide-bbox="true"
     inkscape:zoom="1.1757296"
     inkscape:cx="389.15191"
     inkscape:cy="200.89006"
     inkscape:window-x="0"
     inkscape:window-y="21"
     inkscape:window-maximized="1"
     inkscape:current-layer="g3012"><sodipodi:guide
       orientation="0,1"
       position="125.87928,216.03606"
       id="guide3105" /><sodipodi:guide
       orientation="0,1"
       position="483.10427,386.99374"
       id="guide3120" /><sodipodi:guide
       orientation="1,0"
       position="582.61695,269.61981"
       id="guide3369" /></sodipodi:namedview><g
     id="g3012"
     inkscape:groupmode="layer"
     inkscape:label="oshw-logo"
     transform="matrix(1.25,0,0,-1.25,0,400.00001)"><g
       id="g3014"
       transform="matrix(1.780438,0,0,1.780438,-4.130462,-4.881455)"><g
         id="g3016"
         clip-path="url(#clipPath3018)"
         style="fill:#000000"
         transform="matrix(0.94151736,0,0,0.94151736,5.2924921,6.2547632)"><g
           id="g3022"
           transform="translate(152.3359,123.3896)"
           style="fill:#000000"><path
             d="m 0,0 -16.439,3.057 c -0.401,0.075 -0.838,0.451 -0.973,0.837 l -5.039,11.756 c -0.188,0.363 -0.153,0.933 0.08,1.271 l 9.578,13.96 c 0.229,0.336 0.184,0.847 -0.105,1.136 L -24.861,43.98 c -0.289,0.289 -0.799,0.336 -1.135,0.105 l -14.205,-9.748 c -0.336,-0.231 -0.912,-0.272 -1.278,-0.092 l -11.396,4.665 c -0.387,0.128 -0.764,0.561 -0.84,0.962 l -3.164,17.003 c -0.074,0.401 -0.469,0.729 -0.877,0.729 l -16.92,0 c -0.407,0 -0.803,-0.328 -0.877,-0.729 l -3.163,-17.003 c -0.076,-0.401 -0.452,-0.834 -0.841,-0.962 l -11.397,-4.665 c -0.365,-0.18 -0.942,-0.139 -1.276,0.092 l -14.205,9.748 c -0.336,0.231 -0.848,0.184 -1.135,-0.105 l -11.964,-11.963 c -0.287,-0.289 -0.336,-0.8 -0.105,-1.136 l 9.579,-13.96 c 0.23,-0.338 0.267,-0.908 0.08,-1.271 l -5.041,-11.756 c -0.133,-0.386 -0.57,-0.762 -0.973,-0.837 L -132.432,0 c -0.401,-0.076 -0.729,-0.47 -0.729,-0.878 l 0.001,-16.919 c 0,-0.408 0.328,-0.805 0.729,-0.878 l 16.035,-2.984 c 0.401,-0.073 0.831,-0.454 0.953,-0.843 l 5.005,-12.505 c 0.18,-0.367 0.138,-0.941 -0.095,-1.277 l -9.108,-13.274 c -0.23,-0.336 -0.183,-0.847 0.105,-1.136 l 11.966,-11.963 c 0.287,-0.287 0.799,-0.334 1.135,-0.106 l 13.039,8.95 c 0.335,0.23 0.898,0.248 1.25,0.042 l 5.75,-3.07 c 0.363,-0.185 0.789,-0.029 0.944,0.348 l 11.856,28.648 c 0.158,0.377 0,0.859 -0.347,1.072 l -1.439,0.88 c -0.266,0.163 -0.627,0.442 -0.91,0.698 -5.191,3.324 -8.636,9.139 -8.636,15.761 0,10.334 8.379,18.711 18.712,18.711 10.333,0 18.71,-8.377 18.71,-18.711 0,-6.622 -3.443,-12.437 -8.635,-15.761 -0.281,-0.256 -0.642,-0.535 -0.908,-0.698 l -1.439,-0.88 c -0.346,-0.213 -0.504,-0.695 -0.348,-1.072 l 11.856,-28.648 c 0.156,-0.377 0.58,-0.533 0.945,-0.348 l 5.75,3.07 c 0.351,0.206 0.914,0.188 1.25,-0.042 l 13.039,-8.95 c 0.336,-0.228 0.848,-0.181 1.135,0.106 l 11.965,11.963 c 0.289,0.289 0.335,0.8 0.105,1.136 l -9.109,13.274 c -0.231,0.336 -0.274,0.91 -0.094,1.277 l 5.006,12.505 c 0.123,0.389 0.549,0.77 0.951,0.843 l 16.035,2.984 c 0.4,0.073 0.729,0.47 0.729,0.878 L 0.729,-0.878 C 0.729,-0.47 0.4,-0.076 0,0"
             style="fill:#000000;fill-opacity:1;fill-rule:nonzero;stroke:none"
             id="path3024"
             inkscape:connector-curvature="0" /></g><g
           id="g3026"
           transform="translate(45.5972,6.5176)"
           style="fill:#000000"><path
             d="m 0,0 c 0,-2.799 -1.027,-3.117 -4.037,-3.117 -2.444,0 -3.401,1.062 -3.401,2.265 0,1.311 0.992,2.163 3.118,2.163 L 0,1.311 0,0 z m 0,-6.305 3.613,0 0,12.254 c 0,4.426 -3.046,5.914 -7.473,5.914 -2.692,0 -4.675,-0.707 -6.056,-2.621 l 2.833,-2.16 c 0.637,1.027 1.523,1.383 3.4,1.383 C -1.098,8.465 0,7.861 0,6.162 l 0,-1.877 -4.994,0 c -3.86,0 -5.843,-2.445 -5.843,-5.312 0,-3.118 2.337,-5.491 6.339,-5.491 2.444,0 3.684,0.567 4.427,1.807 l 0.071,0 0,-1.594 z"
             style="fill:#000000;fill-opacity:1;fill-rule:evenodd;stroke:none"
             id="path3028"
             inkscape:connector-curvature="0" /></g><g
           id="g3030"
           transform="translate(53.1782,0.2129)"
           style="fill:#000000"><path
             d="m 0,0 3.612,0 0,10.803 c 0,2.619 1.736,3.754 3.507,3.754 0.921,0 1.523,-0.248 2.373,-0.887 l 2.62,3.117 c -1.098,0.85 -2.301,1.381 -3.754,1.381 -1.912,0 -3.542,-0.709 -4.675,-2.125 l -0.071,0 0,1.912 L 0,17.955 0,0 z"
             style="fill:#000000;fill-opacity:1;fill-rule:evenodd;stroke:none"
             id="path3032"
             inkscape:connector-curvature="0" /></g><g
           id="g3034"
           transform="translate(72.5527,14.7695)"
           style="fill:#000000"><path
             d="m 0,0 c 3.365,0 3.542,-2.977 3.542,-5.563 0,-2.621 -0.177,-5.593 -3.542,-5.593 -3.4,0 -3.577,2.797 -3.577,5.593 C -3.577,-2.799 -3.4,0 0,0 m 3.542,-14.557 3.612,0 0,25.217 -3.612,0 0,-9.174 C 2.196,2.762 0.744,3.611 -1.098,3.611 -3.294,3.611 -4.887,2.621 -5.914,1.273 -6.906,0 -7.189,-1.168 -7.189,-5.563 c 0,-4.425 0.283,-5.593 1.275,-6.869 1.027,-1.345 2.62,-2.338 4.816,-2.338 1.842,0 3.507,0.852 4.64,2.09 l 0,-1.877 z"
             style="fill:#000000;fill-opacity:1;fill-rule:evenodd;stroke:none"
             id="path3036"
             inkscape:connector-curvature="0" /></g><g
           id="g3038"
           transform="translate(98.1426,0.2129)"
           style="fill:#000000"><path
             d="m 0,0 3.189,0 5.737,17.955 -3.826,0 -3.434,-12.572 -0.072,0 -4.073,12.572 -2.621,0 -4.072,-12.572 -0.07,0 -3.436,12.572 -3.824,0 5.736,-17.955 3.188,0 3.754,12.572 0.07,0 L 0,0 z"
             style="fill:#000000;fill-opacity:1;fill-rule:evenodd;stroke:none"
             id="path3040"
             inkscape:connector-curvature="0" /></g><g
           id="g3042"
           transform="translate(118.1855,6.5176)"
           style="fill:#000000"><path
             d="m 0,0 c 0,-2.799 -1.027,-3.117 -4.037,-3.117 -2.443,0 -3.401,1.062 -3.401,2.265 0,1.311 0.993,2.163 3.118,2.163 L 0,1.311 0,0 z m 0,-6.305 3.613,0 0,12.254 c 0,4.426 -3.047,5.914 -7.472,5.914 -2.692,0 -4.676,-0.707 -6.057,-2.621 l 2.834,-2.16 c 0.637,1.027 1.521,1.383 3.398,1.383 C -1.098,8.465 0,7.861 0,6.162 l 0,-1.877 -4.994,0 c -3.86,0 -5.844,-2.445 -5.844,-5.312 0,-3.118 2.338,-5.491 6.34,-5.491 2.443,0 3.684,0.567 4.428,1.807 l 0.07,0 0,-1.594 z"
             style="fill:#000000;fill-opacity:1;fill-rule:evenodd;stroke:none"
             id="path3044"
             inkscape:connector-curvature="0" /></g><g
           id="g3046"
           transform="translate(125.7676,0.2129)"
           style="fill:#000000"><path
             d="m 0,0 3.611,0 0,10.803 c 0,2.619 1.735,3.754 3.506,3.754 0.922,0 1.524,-0.248 2.373,-0.887 l 2.621,3.117 c -1.097,0.85 -2.302,1.381 -3.754,1.381 -1.912,0 -3.541,-0.709 -4.673,-2.125 l -0.073,0 0,1.912 L 0,17.955 0,0 z"
             style="fill:#000000;fill-opacity:1;fill-rule:evenodd;stroke:none"
             id="path3048"
             inkscape:connector-curvature="0" /></g><g
           id="g3050"
           transform="translate(141.5586,10.8027)"
           style="fill:#000000"><path
             d="M 0,0 C 0.07,2.727 1.664,4.18 3.789,4.18 5.914,4.18 7.473,2.727 7.578,0 L 0,0 z m 11.189,-2.977 0,2.977 c 0,4.639 -3.433,7.578 -7.4,7.578 -3.471,0 -7.402,-2.265 -7.402,-9.242 0,-7.367 4.285,-9.139 7.968,-9.139 2.409,0 4.709,0.85 6.481,2.905 L 8.215,-5.666 C 7.152,-6.766 5.664,-7.402 4.285,-7.402 1.805,-7.402 0,-5.914 0,-2.977 l 11.189,0 z"
             style="fill:#000000;fill-opacity:1;fill-rule:evenodd;stroke:none"
             id="path3052"
             inkscape:connector-curvature="0" /></g><g
           id="g3054"
           transform="translate(11.1909,37.5332)"
           style="fill:#000000"><path
             d="m 0,0 c 0,-2.586 -0.212,-3.293 -0.885,-4.25 -0.532,-0.744 -1.665,-1.311 -2.904,-1.311 -1.24,0 -2.373,0.567 -2.904,1.311 -0.673,0.957 -0.886,1.664 -0.886,4.285 0,2.586 0.213,3.295 0.886,4.25 0.531,0.744 1.664,1.311 2.904,1.311 1.239,0 2.372,-0.567 2.904,-1.311 C -0.212,3.33 0,2.621 0,0 m -11.191,0.035 c 0,-3.894 0.566,-5.383 1.947,-6.906 0.992,-1.098 2.657,-2.301 5.455,-2.301 2.797,0 4.462,1.203 5.454,2.301 1.381,1.523 1.948,3.012 1.948,6.906 0,3.861 -0.567,5.348 -1.948,6.871 -0.992,1.098 -2.657,2.303 -5.454,2.303 -2.798,0 -4.463,-1.205 -5.455,-2.303 -1.381,-1.523 -1.947,-3.01 -1.947,-6.871"
             style="fill:#000000;fill-opacity:1;fill-rule:evenodd;stroke:none"
             id="path3056"
             inkscape:connector-curvature="0" /></g><g
           id="g3058"
           transform="translate(38.2778,39.1621)"
           style="fill:#000000"><path
             d="M 0,0 C 0.071,2.729 1.665,4.18 3.79,4.18 5.915,4.18 7.473,2.729 7.579,0 L 0,0 z m 11.191,-2.975 0,2.975 c 0,4.641 -3.435,7.58 -7.401,7.58 -3.472,0 -7.402,-2.267 -7.402,-9.244 0,-7.365 4.285,-9.137 7.968,-9.137 2.409,0 4.71,0.85 6.481,2.905 l -2.621,2.23 C 7.154,-6.764 5.667,-7.402 4.286,-7.402 1.806,-7.402 0,-5.914 0,-2.975 l 11.191,0 z"
             style="fill:#000000;fill-opacity:1;fill-rule:evenodd;stroke:none"
             id="path3060"
             inkscape:connector-curvature="0" /></g><g
           id="g3062"
           transform="translate(52.5522,28.5742)"
           style="fill:#000000"><path
             d="m 0,0 3.612,0 0,10.693 c 0,2.446 1.523,3.862 3.577,3.862 2.019,0 3.542,-1.416 3.542,-3.862 l 0,-10.693 3.612,0 0,11.934 c 0,4.074 -3.187,6.234 -5.985,6.234 -1.912,0 -3.542,-0.709 -4.674,-2.125 l -0.072,0 0,1.912 L 0,17.955 0,0 z"
             style="fill:#000000;fill-opacity:1;fill-rule:evenodd;stroke:none"
             id="path3064"
             inkscape:connector-curvature="0" /></g><g
           id="g3066"
           transform="translate(76.6616,31.584)"
           style="fill:#000000"><path
             d="m 0,0 c 2.302,-2.16 4.994,-3.223 7.898,-3.223 4.179,0 7.436,2.018 7.436,5.526 0,2.867 -1.486,5.135 -5.205,5.383 L 7.154,7.896 C 5.348,8.039 4.782,8.818 4.782,9.598 c 0,1.238 0.779,2.16 3.08,2.16 1.949,0 3.402,-0.674 4.818,-1.664 l 2.231,2.619 c -1.772,1.488 -3.895,2.445 -7.049,2.445 -3.789,0 -6.693,-1.877 -6.693,-5.525 0,-3.08 2.196,-4.852 5.17,-5.1 L 9.527,4.25 c 1.241,-0.105 2.196,-0.496 2.196,-1.771 0,-1.524 -1.489,-2.301 -3.542,-2.301 -2.408,0 -4.108,0.777 -5.666,2.301 L 0,0 z"
             style="fill:#000000;fill-opacity:1;fill-rule:evenodd;stroke:none"
             id="path3068"
             inkscape:connector-curvature="0" /></g><g
           id="g3070"
           transform="translate(105.2422,37.5332)"
           style="fill:#000000"><path
             d="m 0,0 c 0,-2.586 -0.211,-3.293 -0.885,-4.25 -0.531,-0.744 -1.664,-1.311 -2.904,-1.311 -1.238,0 -2.373,0.567 -2.902,1.311 -0.674,0.957 -0.887,1.664 -0.887,4.285 0,2.586 0.213,3.295 0.887,4.25 0.529,0.744 1.664,1.311 2.902,1.311 1.24,0 2.373,-0.567 2.904,-1.311 C -0.211,3.33 0,2.621 0,0 m -11.191,0.035 c 0,-3.894 0.568,-5.383 1.949,-6.906 0.992,-1.098 2.656,-2.301 5.453,-2.301 2.799,0 4.463,1.203 5.455,2.301 1.381,1.523 1.947,3.012 1.947,6.906 0,3.861 -0.566,5.348 -1.947,6.871 -0.992,1.098 -2.656,2.303 -5.455,2.303 -2.797,0 -4.461,-1.205 -5.453,-2.303 -1.381,-1.523 -1.949,-3.01 -1.949,-6.871"
             style="fill:#000000;fill-opacity:1;fill-rule:evenodd;stroke:none"
             id="path3072"
             inkscape:connector-curvature="0" /></g><g
           id="g3074"
           transform="translate(111.9395,34.5938)"
           style="fill:#000000"><path
             d="m 0,0 c 0,-4.072 3.188,-6.232 6.021,-6.232 1.875,0 3.506,0.709 4.639,2.125 l 0.07,0 0,-1.914 3.612,0 0,17.957 -3.612,0 0,-10.696 c 0,-2.443 -1.523,-3.861 -3.542,-3.861 -2.053,0 -3.577,1.418 -3.577,3.861 l 0,10.696 L 0,11.936 0,0 z"
             style="fill:#000000;fill-opacity:1;fill-rule:evenodd;stroke:none"
             id="path3076"
             inkscape:connector-curvature="0" /></g><g
           id="g3078"
           transform="translate(130.2422,28.5742)"
           style="fill:#000000"><path
             d="m 0,0 3.613,0 0,10.801 c 0,2.621 1.735,3.754 3.506,3.754 0.922,0 1.524,-0.248 2.373,-0.885 l 2.621,3.117 c -1.099,0.85 -2.3,1.381 -3.754,1.381 -1.912,0 -3.543,-0.709 -4.675,-2.125 l -0.071,0 0,1.912 L 0,17.955 0,0 z"
             style="fill:#000000;fill-opacity:1;fill-rule:evenodd;stroke:none"
             id="path3080"
             inkscape:connector-curvature="0" /></g><g
           id="g3082"
           transform="translate(153.8594,33.8496)"
           style="fill:#000000"><path
             d="m 0,0 c -0.885,-1.098 -2.16,-1.877 -3.646,-1.877 -2.94,0 -4.676,1.666 -4.676,5.563 0,3.929 1.736,5.593 4.676,5.593 C -2.16,9.279 -0.885,8.5 0,7.402 l 2.656,2.373 c -1.556,1.807 -3.719,3.118 -6.445,3.118 -4.143,0 -8.145,-2.622 -8.145,-9.207 0,-6.555 4.002,-9.174 8.145,-9.174 2.726,0 4.889,1.31 6.445,3.115 L 0,0 z"
             style="fill:#000000;fill-opacity:1;fill-rule:evenodd;stroke:none"
             id="path3084"
             inkscape:connector-curvature="0" /></g><g
           id="g3086"
           transform="translate(161.0469,39.1621)"
           style="fill:#000000"><path
             d="M 0,0 C 0.07,2.729 1.664,4.18 3.789,4.18 5.914,4.18 7.471,2.729 7.578,0 L 0,0 z m 11.191,-2.975 0,2.975 c 0,4.641 -3.437,7.58 -7.402,7.58 -3.473,0 -7.402,-2.267 -7.402,-9.244 0,-7.365 4.285,-9.137 7.968,-9.137 2.409,0 4.711,0.85 6.481,2.905 l -2.621,2.23 C 7.152,-6.764 5.666,-7.402 4.285,-7.402 1.805,-7.402 0,-5.914 0,-2.975 l 11.191,0 z"
             style="fill:#000000;fill-opacity:1;fill-rule:evenodd;stroke:none"
             id="path3088"
             inkscape:connector-curvature="0" /></g><g
           id="g3090"
           transform="translate(17.8726,0.2129)"
           style="fill:#000000"><path
             d="m 0,0 0,46.316 3.626,0 0,-1.877 c 1.134,1.241 2.798,2.09 4.64,2.09 2.195,0 3.79,-0.992 4.817,-2.338 0.991,-1.275 1.274,-2.443 1.274,-6.871 0,-4.39 -0.283,-5.56 -1.274,-6.834 -1.027,-1.345 -2.622,-2.338 -4.817,-2.338 -1.842,0 -3.294,0.85 -4.64,2.125 L 3.613,16.043 c 1.204,1.416 2.833,2.125 4.745,2.125 2.798,0 5.985,-2.16 5.985,-6.232 l 0,-11.936 -3.612,0 0,10.695 c 0,2.446 -1.523,3.862 -3.542,3.862 -2.054,0 -3.576,-1.416 -3.576,-3.862 L 3.613,0 0,0 z m 7.168,31.76 c 3.4,0 3.577,2.799 3.577,5.56 0,2.799 -0.177,5.596 -3.577,5.596 -3.364,0 -3.542,-2.975 -3.542,-5.596 0,-2.586 0.178,-5.56 3.542,-5.56"
             style="fill:#000000;fill-opacity:1;fill-rule:nonzero;stroke:none"
             id="path3092"
             inkscape:connector-curvature="0" /></g></g></g><g
       id="g3354"><path
         id="path3047"
         d="M 31.957,0.311 C 23.275,0.311 15.635,3.524 9.731,9.514 3.653,15.678 0.354,23.666 0.354,32 c 0,8.422 3.212,16.236 9.29,22.313 6.078,6.078 13.978,9.377 22.313,9.377 8.334,0 16.409,-3.299 22.66,-9.463 C 60.521,48.41 63.646,40.683 63.646,32 63.646,23.405 60.521,15.592 54.53,9.601 48.453,3.523 40.639,0.311 31.957,0.311 z m 0.086,5.73 c 7.12,0 13.458,2.691 18.406,7.641 4.862,4.861 7.466,11.286 7.466,18.318 0,7.119 -2.518,13.371 -7.379,18.146 -5.123,5.035 -11.721,7.727 -18.493,7.727 -6.858,0 -13.283,-2.691 -18.232,-7.641 C 8.862,45.283 6.084,38.772 6.084,32 6.084,25.142 8.862,18.631 13.811,13.594 18.673,8.646 24.924,6.041 32.043,6.041 z"
         inkscape:connector-curvature="0"
         transform="matrix(2.1579094,0,0,-2.1579094,316.35222,310.26611)" /><path
         d="m 31.635,26.734 c -1.79,-3.264 -4.844,-4.563 -8.389,-4.563 -5.16,0 -9.267,3.65 -9.267,9.828 0,6.283 3.861,9.829 9.442,9.829 3.581,0 6.635,-1.966 8.319,-4.949 l -3.931,-2.001 c -0.878,2.105 -2.212,2.738 -3.896,2.738 -2.914,0 -4.248,-2.422 -4.248,-5.617 0,-3.193 1.124,-5.616 4.248,-5.616 0.842,0 2.527,0.456 3.51,2.563 l 4.212,-2.212 z"
         id="c"
         inkscape:connector-curvature="0"
         transform="matrix(2.1579094,0,0,-2.1579094,316.35222,310.26611)" /><use
         id="use3050"
         transform="translate(39.448742,4.3453066e-7)"
         xlink:href="#c"
         x="0"
         y="0"
         width="744.09448"
         height="1052.3622" /></g><g
       id="g3359"><path
         id="path1334"
         d="M 31.1875,0 C 13.904525,0.43835438 0,14.612004 0,32 0,49.663996 14.336004,64 32,64 49.663996,64 64,49.663996 64,32 64,14.336004 49.663996,0 32,0 31.724,0 31.461833,-0.00695801 31.1875,0 z M 31.15625,5.5 C 31.439783,5.49101 31.714297,5.5 32,5.5 46.628003,5.4999998 58.5,17.371998 58.5,32 58.499998,46.628001 46.628002,58.5 32,58.5 17.371999,58.499999 5.5,46.628002 5.5,32 5.4999999,17.657701 16.922915,5.9512829 31.15625,5.5 z"
         style="fill:#000000;fill-opacity:1;fill-rule:nonzero;stroke:none;display:inline"
         inkscape:connector-curvature="0"
         transform="matrix(2.136971,0,0,-2.136971,477.32061,309.595)" /><g
         id="g6525"
         style="display:inline"
         transform="matrix(2.136971,0,0,-2.136971,477.32061,309.595)"><path
           sodipodi:type="arc"
           style="fill:#000000;fill-opacity:1;fill-rule:evenodd;stroke:none"
           id="path2838"
           sodipodi:cx="32.0625"
           sodipodi:cy="15.75"
           sodipodi:rx="4.625"
           sodipodi:ry="4.625"
           d="m 36.6875,15.75 c 0,2.554317 -2.070683,4.625 -4.625,4.625 -2.554317,0 -4.625,-2.070683 -4.625,-4.625 0,-2.554317 2.070683,-4.625 4.625,-4.625 2.554317,0 4.625,2.070683 4.625,4.625 z"
           transform="translate(-0.0625,0.185547)" /><path
           id="path3572"
           style="fill:#000000;fill-opacity:1;fill-rule:evenodd;stroke:none"
           d="m 27.215125,52.689453 9.56975,0 0,-15.378905 2.893008,0 c 0,0 -0.0011,-10.990367 0,-12.720111 -0.0028,-0.456306 0.04119,-1.365057 -0.620739,-2.026989 -0.661932,-0.661932 -1.555399,-0.621804 -2.02699,-0.620739 -0.47159,0.0011 -9.588717,0.0011 -10.060308,0 -0.471591,-0.0011 -1.365057,-0.04119 -2.026989,0.620739 -0.661933,0.661932 -0.617898,1.570683 -0.620739,2.026989 0.0011,1.729744 0,12.720111 0,12.720111 l 2.893007,0 0,15.378905 z"
           sodipodi:nodetypes="ccccssccssccc"
           inkscape:connector-curvature="0" /></g></g><g
       id="g3336"
       transform="matrix(0.77735836,0,0,0.77735836,101.49779,28.020834)"><path
         id="path3220"
         d="m 133.629,122.344 c -10.296,-1.596 -16.985,-7.559 -19.547,-17.428 -1.228,-4.723 -0.837,-13.805 0.771,-18.016 2.273,-5.947 5.899,-9.988 11.417,-12.727 6.943,-3.443 15.968,-3.428 23.303,0.042 3.017,1.427 7.382,5.375 8.646,7.82 l 0.741,1.434 -5.523,2.869 c -5.076,2.637 -5.548,2.79 -5.834,1.889 -0.54,-1.7 -4.615,-5.045 -6.602,-5.418 -5.074,-0.951 -9.119,1.041 -11.413,5.625 -0.98,1.959 -1.294,3.498 -1.453,7.134 -0.451,10.316 3.425,15.918 11.032,15.938 4,0.01 6.793,-1.438 8.672,-4.496 0.698,-1.137 1.444,-2.071 1.659,-2.08 0.584,-0.02 9.505,4.521 9.505,4.838 0,1.925 -6.16,8.099 -10.042,10.064 -4.741,2.402 -10.231,3.302 -15.332,2.512 z"
         inkscape:connector-curvature="0"
         transform="matrix(0.8,0,0,-0.8,226.59073,162.83174)" /><path
         id="path3222"
         d="m 192.495,72.399 c -3.537,-0.846 -11.084,-0.837 -14.717,0.016 -6.612,1.553 -12.669,6.15 -15.525,11.79 -3.784,7.467 -3.619,18.862 0.381,26.368 2.862,5.368 8.899,9.763 15.145,11.023 1.535,0.311 3.248,0.669 3.807,0.799 1.722,0.396 9.504,-0.185 12.179,-0.908 9.414,-2.545 15.563,-9.741 17.004,-19.896 2.074,-14.619 -5.076,-26.04 -18.274,-29.192 z m -2.647,38.327 c -2.729,1.14 -7.295,1.015 -9.892,-0.271 -4.291,-2.125 -6.602,-7.875 -6.102,-15.189 0.307,-4.48 1.328,-7.215 3.57,-9.546 2.147,-2.232 4.428,-3.135 7.902,-3.121 5.021,0.021 8.167,2.116 10.279,6.848 0.918,2.056 1.126,3.436 1.111,7.352 -0.028,7.609 -2.177,11.967 -6.868,13.927 z"
         inkscape:connector-curvature="0"
         transform="matrix(0.8,0,0,-0.8,226.59073,162.83174)" /><path
         id="path3224"
         d="m 391.173,71.734 c -7.696,0 -13.799,2.171 -18.521,6.587 -7.301,6.829 -9.366,20.817 -4.585,31.039 2.917,6.231 8.846,10.833 15.772,12.239 1.52,0.31 3.221,0.665 3.779,0.793 1.71,0.391 9.488,-0.203 12.258,-0.935 10.917,-2.888 17.174,-11.932 17.064,-24.661 -0.135,-15.717 -9.744,-25.062 -25.767,-25.062 z m 11.446,28.108 c -0.754,5.736 -2.723,9.07 -6.313,10.701 -4.799,2.179 -11.304,0.715 -13.838,-3.112 -4.975,-7.518 -2.999,-20.619 3.592,-23.809 3.931,-1.903 9.901,-1.137 12.894,1.654 2.911,2.716 4.431,8.752 3.665,14.566 z"
         inkscape:connector-curvature="0"
         transform="matrix(0.8,0,0,-0.8,226.59073,162.83174)" /><path
         id="path3226"
         d="m 484.547,122.324 c -5.231,-0.693 -10.174,-2.908 -14.853,-6.652 l -3.18,-2.545 4.378,-3.839 4.379,-3.839 2.101,1.668 c 4.484,3.562 8.215,4.967 13.178,4.967 5.44,0 8.559,-2.146 7.756,-5.344 -0.465,-1.852 -2.391,-2.662 -10.961,-4.613 -4.151,-0.945 -8.7,-2.215 -10.109,-2.82 -6.775,-2.916 -9.295,-10.112 -6.125,-17.508 2.74,-6.392 9.702,-10.069 19.02,-10.05 6.671,0.015 13.473,1.925 19.116,5.37 l 2.369,1.445 -4.399,4.262 -4.399,4.261 -1.269,-1.151 c -3.485,-3.165 -12.626,-4.938 -16.025,-3.106 -3,1.615 -2.691,4.781 0.6,6.156 0.959,0.4 4.31,1.287 7.443,1.969 11.163,2.429 14.784,4.203 17.104,8.381 1.704,3.071 1.786,9.199 0.171,12.763 -1.286,2.839 -4.422,6.089 -7.281,7.547 -4.765,2.426 -12.591,3.53 -19.014,2.678 z"
         inkscape:connector-curvature="0"
         transform="matrix(0.8,0,0,-0.8,226.59073,162.83174)" /><path
         id="path3234"
         d="M 214.316,97.051 V 72.946 h 7.105 7.104 v 1.738 1.739 l 2.908,-1.751 c 3.858,-2.322 6.179,-2.934 11.048,-2.904 4.852,0.027 7.699,1.108 10.872,4.127 l 2.139,2.033 1.683,-1.478 c 3.768,-3.31 10.687,-5.344 16.01,-4.711 5.684,0.676 9.327,2.753 11.296,6.437 1.116,2.087 1.141,2.51 1.286,22.554 l 0.148,20.426 h -7.103 -7.1 l -0.152,-16.62 c -0.137,-14.749 -0.254,-16.804 -1.05,-18.26 -2.448,-4.48 -9.854,-4.195 -12.396,0.477 -0.812,1.488 -0.931,3.461 -1.082,18.037 l -0.173,16.366 h -7.062 -7.063 v -16.771 c 0,-18.413 -0.086,-18.997 -3.027,-20.519 -2.108,-1.09 -6.009,-0.98 -7.985,0.225 -3.137,1.912 -3.196,2.297 -3.196,20.548 v 16.519 h -7.104 -7.105 V 97.051 z"
         inkscape:connector-curvature="0"
         transform="matrix(0.8,0,0,-0.8,226.59073,162.83174)" /><path
         id="path3236"
         d="M 290.438,97.051 V 72.946 h 7.104 7.104 v 2.075 2.074 l 1.646,-1.385 c 3.639,-3.061 10.365,-4.746 15.305,-3.832 3.852,0.711 6.063,1.822 8.274,4.156 l 1.837,1.938 1.839,-1.455 c 4.926,-3.901 11.062,-5.601 16.88,-4.673 4.137,0.66 6.497,1.691 8.537,3.731 3.28,3.281 3.266,3.17 3.435,25.405 l 0.153,20.172 h -7.093 -7.094 l -0.171,-16.366 c -0.188,-18.248 -0.37,-19.337 -3.5,-20.955 -2.515,-1.301 -6.659,-0.807 -8.567,1.021 -2.244,2.149 -2.554,4.733 -2.554,21.354 v 14.945 h -7.079 -7.08 l -0.151,-17.127 c -0.138,-15.5 -0.239,-17.255 -1.063,-18.473 -1.28,-1.885 -3.41,-2.629 -6.737,-2.353 -3.543,0.294 -5.689,2.17 -6.341,5.54 -0.235,1.219 -0.438,9.011 -0.45,17.313 l -0.022,15.098 h -7.104 -7.104 V 97.051 h -0.004 z"
         inkscape:connector-curvature="0"
         transform="matrix(0.8,0,0,-0.8,226.59073,162.83174)" /><path
         id="path3238"
         d="M 420.858,97.051 V 72.946 h 7.104 7.104 v 2.075 2.074 l 1.545,-1.301 c 6.726,-5.658 20.117,-5.459 24.561,0.365 2.666,3.494 2.821,4.918 2.821,25.792 v 19.203 h -7.104 -7.104 v -16.509 c 0,-18.195 -0.158,-19.298 -2.979,-20.757 -2.319,-1.198 -6.166,-1.028 -8.237,0.365 -3.177,2.139 -3.229,2.457 -3.41,20.533 l -0.164,16.366 h -7.067 -7.066 V 97.051 h -0.004 z"
         inkscape:connector-curvature="0"
         transform="matrix(0.8,0,0,-0.8,226.59073,162.83174)" /><path
         id="path3240"
         d="m 134.897,66.525 c -8.16,-0.755 -15.515,-5.398 -18.764,-11.85 -2.687,-5.335 -3.654,-15.282 -2.066,-21.247 2.15,-8.08 7.884,-14.289 15.291,-16.563 8.332,-2.558 18.323,-0.875 24.405,4.107 1.98,1.622 5.594,6.176 5.162,6.501 -0.708,0.535 -10.187,5.38 -10.524,5.38 -0.234,0 -1.028,-0.909 -1.764,-2.021 -3.668,-5.543 -12.555,-5.519 -16.163,0.045 -1.863,2.873 -2.604,6.603 -2.335,11.736 0.424,8.081 3.869,12.528 10.05,12.976 1.62,0.117 3.753,-0.054 4.742,-0.38 1.668,-0.551 4.395,-3.115 5.735,-5.396 0.546,-0.931 0.799,-0.863 5.455,1.433 2.686,1.324 4.882,2.603 4.882,2.842 0,0.771 -2.82,4.34 -4.928,6.237 -5.039,4.536 -12.188,6.847 -19.178,6.2 z"
         inkscape:connector-curvature="0"
         transform="matrix(0.8,0,0,-0.8,226.59073,162.83174)" /><path
         id="path3242"
         d="m 238.677,44.02 v -2.237 c 0,-3.109 -1.222,-9.16 -2.507,-12.409 -3.275,-8.283 -9.864,-12.989 -19.039,-13.601 -4.673,-0.312 -10.202,0.664 -13.916,2.454 -5.064,2.442 -9.501,8.551 -10.992,15.136 -3.963,17.499 3.695,30.939 18.791,32.979 9.984,1.348 19.813,-2.311 24.949,-9.288 1.23,-1.672 2.168,-3.248 2.083,-3.504 -0.085,-0.256 -2.372,-1.647 -5.081,-3.094 l -4.926,-2.629 -3.157,3.494 c -3.518,3.892 -5.33,4.884 -8.899,4.867 -5.837,-0.027 -9.39,-3.493 -10.526,-10.266 l -0.319,-1.903 h 16.771 16.768 z m -33.621,-8.627 0.328,-1.641 c 1.301,-6.5 9.278,-9.771 14.916,-6.115 2.154,1.396 3.414,3.355 3.981,6.193 l 0.313,1.563 h -9.769 -9.769 z"
         inkscape:connector-curvature="0"
         transform="matrix(0.8,0,0,-0.8,226.59073,162.83174)" /><path
         id="path3244"
         d="m 286.079,64.445 c -0.226,-0.488 -0.543,-9.338 -0.707,-19.664 -0.293,-18.345 -0.327,-18.832 -1.486,-21.202 -2.442,-4.996 -7.472,-7.307 -17.014,-7.819 -9.037,-0.483 -14.89,0.953 -18.999,4.666 -2.172,1.962 -4.122,6.169 -4.122,8.896 v 1.503 h 6.794 6.794 l 0.327,-1.745 c 0.666,-3.548 5.231,-5.59 9.703,-4.338 3.232,0.904 4.03,2.033 4.034,5.699 l 0.004,3.066 -6.899,1.163 c -13.248,2.236 -18.914,5.164 -21.787,11.262 -1.514,3.214 -1.577,9.072 -0.134,12.324 1.801,4.06 6.205,7.211 11.313,8.103 5.193,0.903 12.663,-0.873 16.123,-3.835 2.42,-2.071 2.652,-2.124 2.661,-0.616 0.003,0.628 0.146,1.655 0.313,2.283 0.296,1.11 0.489,1.143 6.897,1.143 6.096,0 6.562,-0.068 6.185,-0.889 z M 271.104,48.602 c -0.643,2.99 -2.882,5.867 -5.381,6.912 -0.903,0.377 -2.756,0.686 -4.119,0.687 -6.295,0 -8.896,-6.217 -4.09,-9.773 1.201,-0.889 11.97,-4.42 13.514,-4.432 0.8,-0.007 0.834,3.071 0.076,6.606 z"
         inkscape:connector-curvature="0"
         transform="matrix(0.8,0,0,-0.8,226.59073,162.83174)" /><path
         id="path3246"
         d="m 306.272,66.317 c -4.563,-0.807 -7.3,-2.859 -9.083,-6.819 -0.805,-1.785 -0.935,-3.91 -1.075,-17.635 l -0.16,-15.605 h -3.539 -3.54 l 0.146,-4.187 0.147,-4.188 3.425,-0.149 3.426,-0.149 V 10.757 3.93 h 7.104 7.104 v 6.852 6.851 h 4.313 4.313 v 4.293 4.293 l -4.187,0.147 -4.188,0.146 -0.146,11.672 c -0.082,6.421 -0.013,12.428 0.154,13.351 0.496,2.748 1.813,3.649 5.321,3.649 h 3.044 v 5.582 5.583 l -2.41,0.006 c -1.324,0.002 -3.552,0.102 -4.946,0.221 -1.392,0.118 -3.743,0.002 -5.223,-0.259 z"
         inkscape:connector-curvature="0"
         transform="matrix(0.8,0,0,-0.8,226.59073,162.83174)" /><path
         id="path3248"
         d="m 424.111,48.089 c -0.304,-0.005 -1.591,1.328 -2.86,2.962 -2.76,3.556 -5.657,5.154 -9.308,5.138 -5.05,-0.022 -9.382,-3.559 -10.11,-8.255 -0.184,-1.175 -0.445,-2.536 -0.583,-3.024 -0.235,-0.834 0.794,-0.889 16.603,-0.889 h 16.854 l -0.295,-3.934 C 433.131,22.99 422.619,13.732 407.06,16 c -10.157,1.481 -16.605,7.502 -18.974,17.715 -0.984,4.238 -1.091,11.703 -0.225,15.382 2.256,9.558 9.203,15.85 19.041,17.243 6.067,0.86 12.31,-0.16 17.55,-2.87 3.558,-1.838 6.015,-4.087 8.493,-7.776 l 1.532,-2.281 -4.907,-2.656 c -2.697,-1.463 -5.154,-2.663 -5.459,-2.668 z M 401.297,33.997 c 1.559,-6.426 8.349,-9.736 14.241,-6.94 2.184,1.037 4.224,3.885 4.646,6.488 l 0.301,1.848 h -9.764 -9.764 l 0.34,-1.396 z"
         inkscape:connector-curvature="0"
         transform="matrix(0.8,0,0,-0.8,226.59073,162.83174)" /><path
         id="path3250"
         d="m 162.677,41.102 0.132,-24.23 6.951,-0.142 6.951,-0.142 0.154,2.532 0.153,2.532 2.197,-1.479 c 2.062,-1.388 5.353,-2.561 9.048,-3.226 2.085,-0.375 2.203,-0.017 2.203,6.745 v 5.471 l -3.933,0.615 c -2.164,0.339 -4.883,1.064 -6.042,1.614 -3.618,1.714 -3.728,2.271 -3.728,19.173 v 14.768 h -7.108 -7.11 l 0.132,-24.231 z"
         inkscape:connector-curvature="0"
         transform="matrix(0.8,0,0,-0.8,226.59073,162.83174)" /><polygon
         id="polygon3252"
         points="338.395,16.87 338.525,41.102 338.658,65.334 331.549,65.334 324.438,65.334 324.438,40.961 324.438,16.588 331.417,16.729 "
         transform="matrix(0.8,0,0,-0.8,226.59073,162.83174)" /><path
         id="path3254"
         d="m 349.705,41.863 c -4.375,-12.909 -8.024,-23.813 -8.11,-24.232 -0.131,-0.645 0.987,-0.783 7.271,-0.899 5.664,-0.107 7.479,0.013 7.656,0.507 0.127,0.355 2.025,8.013 4.219,17.014 2.192,9.001 4.112,16.363 4.269,16.36 0.155,-0.004 2.126,-7.598 4.379,-16.874 l 4.098,-16.867 7.447,-0.141 c 4.46,-0.085 7.448,0.053 7.448,0.341 0,0.266 -2.995,9.233 -6.655,19.932 -3.66,10.699 -7.334,21.449 -8.164,23.891 l -1.511,4.441 h -7.195 -7.194 l -7.958,-23.473 z"
         inkscape:connector-curvature="0"
         transform="matrix(0.8,0,0,-0.8,226.59073,162.83174)" /><polygon
         id="polygon3256"
         points="338.683,0.377 338.539,5.832 338.395,11.287 331.417,11.429 324.438,11.57 324.438,5.974 324.438,0.377 331.561,0.377 "
         transform="matrix(0.8,0,0,-0.8,226.59073,162.83174)" /></g><text
       xml:space="preserve"
       style="font-size:56px;font-style:normal;font-variant:normal;font-weight:normal;font-stretch:normal;text-align:start;line-height:125%;letter-spacing:0px;word-spacing:0px;writing-mode:lr-tb;text-anchor:start;fill:#000000;fill-opacity:1;stroke:none;font-family:Consolas;-inkscape-font-specification:Consolas"
       x="490.75909"
       y="360.02481"
       id="text3365"
       sodipodi:linespacing="125%"
       transform="matrix(0.8,0,0,-0.8,-34.701856,313.19573)"><tspan
         sodipodi:role="line"
         id="tspan3367"
         x="490.75909"
         y="360.02481">CC BY 3.0</tspan></text>
</g></svg>